# xmcd
#
# Track frame offsets:
#	150
#	13113
#	32189
#	46831
#	62768
#	80726
#	93818
#	109589
#	122660
#	144219
#
# Disc length: 2164 seconds
#
# Revision: 0
# Processed by: cddbd v1.5.1PL0 Copyright (c) Steve Scherf et al.
# Submitted via: dBpowerAMP V4.0
#
DISCID=7908720a
DTITLE=Grupo cali - Durisimo
DYEAR=2005
DGENRE=
TTITLE0=La parrandera
TTITLE1=Vino tinto
TTITLE2=Apaga la tele
TTITLE3=Me parece verte
TTITLE4=Tarde gris
TTITLE5=Miren esa chica
TTITLE6=El 14
TTITLE7=Como hago
TTITLE8=Vanidosa/Tormentos/Ojitos mentirosos
TTITLE9=Mujer de la calle/La carta
EXTD=
EXTT0=
EXTT1=
EXTT2=
EXTT3=
EXTT4=
EXTT5=
EXTT6=
EXTT7=
EXTT8=
EXTT9=
PLAYORDER=
